<svg width="186" height="31" viewBox="0 0 186 31" fill="none" xmlns="http://www.w3.org/2000/svg">
<path d="M45.6133 22.7443H42.2148V8.93958C42.2148 7.97864 42.4023 7.17004 42.7773 6.51379C43.1602 5.84973 43.6953 5.34973 44.3828 5.01379C45.0781 4.67004 45.9023 4.49817 46.8555 4.49817C47.168 4.49817 47.4688 4.52161 47.7578 4.56848C48.0469 4.60754 48.3281 4.65833 48.6016 4.72083L48.5664 7.26379C48.418 7.22473 48.2617 7.19739 48.0977 7.18176C47.9336 7.16614 47.7422 7.15833 47.5234 7.15833C47.1172 7.15833 46.7695 7.22864 46.4805 7.36926C46.1992 7.50208 45.9844 7.70129 45.8359 7.96692C45.6875 8.23254 45.6133 8.55676 45.6133 8.93958V22.7443ZM48.1445 10.0646V12.4552H40.3281V10.0646H48.1445ZM49.375 16.5333V16.2872C49.375 15.3575 49.5078 14.5021 49.7734 13.7208C50.0391 12.9318 50.4258 12.2482 50.9336 11.67C51.4414 11.0919 52.0664 10.6427 52.8086 10.3224C53.5508 9.99426 54.4023 9.8302 55.3633 9.8302C56.3242 9.8302 57.1797 9.99426 57.9297 10.3224C58.6797 10.6427 59.3086 11.0919 59.8164 11.67C60.332 12.2482 60.7227 12.9318 60.9883 13.7208C61.2539 14.5021 61.3867 15.3575 61.3867 16.2872V16.5333C61.3867 17.4552 61.2539 18.3107 60.9883 19.0997C60.7227 19.881 60.332 20.5646 59.8164 21.1505C59.3086 21.7286 58.6836 22.1779 57.9414 22.4982C57.1992 22.8185 56.3477 22.9786 55.3867 22.9786C54.4258 22.9786 53.5703 22.8185 52.8203 22.4982C52.0781 22.1779 51.4492 21.7286 50.9336 21.1505C50.4258 20.5646 50.0391 19.881 49.7734 19.0997C49.5078 18.3107 49.375 17.4552 49.375 16.5333ZM52.75 16.2872V16.5333C52.75 17.0646 52.7969 17.5607 52.8906 18.0216C52.9844 18.4825 53.1328 18.8888 53.3359 19.2404C53.5469 19.5841 53.8203 19.8536 54.1562 20.049C54.4922 20.2443 54.9023 20.3419 55.3867 20.3419C55.8555 20.3419 56.2578 20.2443 56.5938 20.049C56.9297 19.8536 57.1992 19.5841 57.4023 19.2404C57.6055 18.8888 57.7539 18.4825 57.8477 18.0216C57.9492 17.5607 58 17.0646 58 16.5333V16.2872C58 15.7716 57.9492 15.2872 57.8477 14.8341C57.7539 14.3732 57.6016 13.9669 57.3906 13.6154C57.1875 13.256 56.918 12.9747 56.582 12.7716C56.2461 12.5685 55.8398 12.4669 55.3633 12.4669C54.8867 12.4669 54.4805 12.5685 54.1445 12.7716C53.8164 12.9747 53.5469 13.256 53.3359 13.6154C53.1328 13.9669 52.9844 14.3732 52.8906 14.8341C52.7969 15.2872 52.75 15.7716 52.75 16.2872ZM62.9219 16.5333V16.2872C62.9219 15.3575 63.0547 14.5021 63.3203 13.7208C63.5859 12.9318 63.9727 12.2482 64.4805 11.67C64.9883 11.0919 65.6133 10.6427 66.3555 10.3224C67.0977 9.99426 67.9492 9.8302 68.9102 9.8302C69.8711 9.8302 70.7266 9.99426 71.4766 10.3224C72.2266 10.6427 72.8555 11.0919 73.3633 11.67C73.8789 12.2482 74.2695 12.9318 74.5352 13.7208C74.8008 14.5021 74.9336 15.3575 74.9336 16.2872V16.5333C74.9336 17.4552 74.8008 18.3107 74.5352 19.0997C74.2695 19.881 73.8789 20.5646 73.3633 21.1505C72.8555 21.7286 72.2305 22.1779 71.4883 22.4982C70.7461 22.8185 69.8945 22.9786 68.9336 22.9786C67.9727 22.9786 67.1172 22.8185 66.3672 22.4982C65.625 22.1779 64.9961 21.7286 64.4805 21.1505C63.9727 20.5646 63.5859 19.881 63.3203 19.0997C63.0547 18.3107 62.9219 17.4552 62.9219 16.5333ZM66.2969 16.2872V16.5333C66.2969 17.0646 66.3438 17.5607 66.4375 18.0216C66.5312 18.4825 66.6797 18.8888 66.8828 19.2404C67.0938 19.5841 67.3672 19.8536 67.7031 20.049C68.0391 20.2443 68.4492 20.3419 68.9336 20.3419C69.4023 20.3419 69.8047 20.2443 70.1406 20.049C70.4766 19.8536 70.7461 19.5841 70.9492 19.2404C71.1523 18.8888 71.3008 18.4825 71.3945 18.0216C71.4961 17.5607 71.5469 17.0646 71.5469 16.5333V16.2872C71.5469 15.7716 71.4961 15.2872 71.3945 14.8341C71.3008 14.3732 71.1484 13.9669 70.9375 13.6154C70.7344 13.256 70.4648 12.9747 70.1289 12.7716C69.793 12.5685 69.3867 12.4669 68.9102 12.4669C68.4336 12.4669 68.0273 12.5685 67.6914 12.7716C67.3633 12.9747 67.0938 13.256 66.8828 13.6154C66.6797 13.9669 66.5312 14.3732 66.4375 14.8341C66.3438 15.2872 66.2969 15.7716 66.2969 16.2872ZM84.4961 19.9786V4.74426H87.8945V22.7443H84.8359L84.4961 19.9786ZM76.4805 16.5568V16.3107C76.4805 15.3419 76.5898 14.463 76.8086 13.674C77.0273 12.8771 77.3477 12.1935 77.7695 11.6232C78.1914 11.0529 78.7109 10.6115 79.3281 10.299C79.9453 9.98645 80.6484 9.8302 81.4375 9.8302C82.1797 9.8302 82.8281 9.98645 83.3828 10.299C83.9453 10.6115 84.4219 11.0568 84.8125 11.6349C85.2109 12.2052 85.5312 12.881 85.7734 13.6622C86.0156 14.4357 86.1914 15.2833 86.3008 16.2052V16.7443C86.1914 17.6271 86.0156 18.4474 85.7734 19.2052C85.5312 19.963 85.2109 20.6271 84.8125 21.1974C84.4219 21.7599 83.9453 22.1974 83.3828 22.5099C82.8203 22.8224 82.1641 22.9786 81.4141 22.9786C80.625 22.9786 79.9219 22.8185 79.3047 22.4982C78.6953 22.1779 78.1797 21.7286 77.7578 21.1505C77.3438 20.5724 77.0273 19.8927 76.8086 19.1115C76.5898 18.3302 76.4805 17.4786 76.4805 16.5568ZM79.8555 16.3107V16.5568C79.8555 17.0802 79.8945 17.5685 79.9727 18.0216C80.0586 18.4747 80.1953 18.8771 80.3828 19.2286C80.5781 19.5724 80.8281 19.8419 81.1328 20.0372C81.4453 20.2247 81.8242 20.3185 82.2695 20.3185C82.8477 20.3185 83.3242 20.1896 83.6992 19.9318C84.0742 19.6661 84.3594 19.3029 84.5547 18.8419C84.7578 18.381 84.875 17.8497 84.9062 17.2482V15.713C84.8828 15.2208 84.8125 14.7794 84.6953 14.3888C84.5859 13.9904 84.4219 13.6505 84.2031 13.3693C83.9922 13.088 83.7266 12.8693 83.4062 12.713C83.0938 12.5568 82.7227 12.4786 82.293 12.4786C81.8555 12.4786 81.4805 12.5802 81.168 12.7833C80.8555 12.9786 80.6016 13.2482 80.4062 13.5919C80.2188 13.9357 80.0781 14.3419 79.9844 14.8107C79.8984 15.2716 79.8555 15.7716 79.8555 16.3107ZM102.344 22.9786C101.359 22.9786 100.477 22.8224 99.6953 22.5099C98.9141 22.1896 98.25 21.7482 97.7031 21.1857C97.1641 20.6232 96.75 19.9708 96.4609 19.2286C96.1719 18.4786 96.0273 17.6818 96.0273 16.838V16.3693C96.0273 15.4083 96.1641 14.5294 96.4375 13.7325C96.7109 12.9357 97.1016 12.2443 97.6094 11.6583C98.125 11.0724 98.75 10.6232 99.4844 10.3107C100.219 9.99036 101.047 9.8302 101.969 9.8302C102.867 9.8302 103.664 9.97864 104.359 10.2755C105.055 10.5724 105.637 10.9943 106.105 11.5411C106.582 12.088 106.941 12.7443 107.184 13.5099C107.426 14.2677 107.547 15.1115 107.547 16.0411V17.4474H97.4688V15.1974H104.23V14.9396C104.23 14.4708 104.145 14.0529 103.973 13.6857C103.809 13.3107 103.559 13.0138 103.223 12.795C102.887 12.5763 102.457 12.4669 101.934 12.4669C101.488 12.4669 101.105 12.5646 100.785 12.7599C100.465 12.9552 100.203 13.2286 100 13.5802C99.8047 13.9318 99.6562 14.3458 99.5547 14.8224C99.4609 15.2911 99.4141 15.8068 99.4141 16.3693V16.838C99.4141 17.3458 99.4844 17.8146 99.625 18.2443C99.7734 18.674 99.9805 19.045 100.246 19.3575C100.52 19.67 100.848 19.9122 101.23 20.0841C101.621 20.256 102.062 20.3419 102.555 20.3419C103.164 20.3419 103.73 20.2247 104.254 19.9904C104.785 19.7482 105.242 19.3849 105.625 18.9005L107.266 20.6818C107 21.0646 106.637 21.4318 106.176 21.7833C105.723 22.1349 105.176 22.424 104.535 22.6505C103.895 22.8693 103.164 22.9786 102.344 22.9786ZM112.188 10.0646L114.285 13.92L116.441 10.0646H120.039L116.453 16.2638L120.203 22.7443H116.594L114.309 18.6661L112.023 22.7443H108.414L112.164 16.2638L108.578 10.0646H112.188ZM125.055 12.5021V27.6193H121.68V10.0646H124.809L125.055 12.5021ZM133.082 16.2638V16.5099C133.082 17.4318 132.973 18.2872 132.754 19.0763C132.543 19.8654 132.23 20.5529 131.816 21.1388C131.402 21.7169 130.887 22.17 130.27 22.4982C129.66 22.8185 128.957 22.9786 128.16 22.9786C127.387 22.9786 126.715 22.8224 126.145 22.5099C125.574 22.1974 125.094 21.7599 124.703 21.1974C124.32 20.6271 124.012 19.9669 123.777 19.2169C123.543 18.4669 123.363 17.6622 123.238 16.8029V16.1583C123.363 15.2365 123.543 14.3927 123.777 13.6271C124.012 12.8536 124.32 12.1857 124.703 11.6232C125.094 11.0529 125.57 10.6115 126.133 10.299C126.703 9.98645 127.371 9.8302 128.137 9.8302C128.941 9.8302 129.648 9.98254 130.258 10.2872C130.875 10.5919 131.391 11.0294 131.805 11.5997C132.227 12.17 132.543 12.8497 132.754 13.6388C132.973 14.4279 133.082 15.3029 133.082 16.2638ZM129.695 16.5099V16.2638C129.695 15.7247 129.648 15.2286 129.555 14.7755C129.469 14.3146 129.328 13.9122 129.133 13.5685C128.945 13.2247 128.695 12.9591 128.383 12.7716C128.078 12.5763 127.707 12.4786 127.27 12.4786C126.809 12.4786 126.414 12.5529 126.086 12.7013C125.766 12.8497 125.504 13.0646 125.301 13.3458C125.098 13.6271 124.945 13.963 124.844 14.3536C124.742 14.7443 124.68 15.1857 124.656 15.6779V17.3068C124.695 17.8849 124.805 18.4044 124.984 18.8654C125.164 19.3185 125.441 19.6779 125.816 19.9435C126.191 20.2091 126.684 20.3419 127.293 20.3419C127.738 20.3419 128.113 20.2443 128.418 20.049C128.723 19.8458 128.969 19.5685 129.156 19.2169C129.352 18.8654 129.488 18.4591 129.566 17.9982C129.652 17.5372 129.695 17.0411 129.695 16.5099ZM138.742 4.74426V22.7443H135.355V4.74426H138.742ZM140.992 16.5333V16.2872C140.992 15.3575 141.125 14.5021 141.391 13.7208C141.656 12.9318 142.043 12.2482 142.551 11.67C143.059 11.0919 143.684 10.6427 144.426 10.3224C145.168 9.99426 146.02 9.8302 146.98 9.8302C147.941 9.8302 148.797 9.99426 149.547 10.3224C150.297 10.6427 150.926 11.0919 151.434 11.67C151.949 12.2482 152.34 12.9318 152.605 13.7208C152.871 14.5021 153.004 15.3575 153.004 16.2872V16.5333C153.004 17.4552 152.871 18.3107 152.605 19.0997C152.34 19.881 151.949 20.5646 151.434 21.1505C150.926 21.7286 150.301 22.1779 149.559 22.4982C148.816 22.8185 147.965 22.9786 147.004 22.9786C146.043 22.9786 145.188 22.8185 144.438 22.4982C143.695 22.1779 143.066 21.7286 142.551 21.1505C142.043 20.5646 141.656 19.881 141.391 19.0997C141.125 18.3107 140.992 17.4552 140.992 16.5333ZM144.367 16.2872V16.5333C144.367 17.0646 144.414 17.5607 144.508 18.0216C144.602 18.4825 144.75 18.8888 144.953 19.2404C145.164 19.5841 145.438 19.8536 145.773 20.049C146.109 20.2443 146.52 20.3419 147.004 20.3419C147.473 20.3419 147.875 20.2443 148.211 20.049C148.547 19.8536 148.816 19.5841 149.02 19.2404C149.223 18.8888 149.371 18.4825 149.465 18.0216C149.566 17.5607 149.617 17.0646 149.617 16.5333V16.2872C149.617 15.7716 149.566 15.2872 149.465 14.8341C149.371 14.3732 149.219 13.9669 149.008 13.6154C148.805 13.256 148.535 12.9747 148.199 12.7716C147.863 12.5685 147.457 12.4669 146.98 12.4669C146.504 12.4669 146.098 12.5685 145.762 12.7716C145.434 12.9747 145.164 13.256 144.953 13.6154C144.75 13.9669 144.602 14.3732 144.508 14.8341C144.414 15.2872 144.367 15.7716 144.367 16.2872ZM158.453 12.8302V22.7443H155.078V10.0646H158.254L158.453 12.8302ZM162.273 9.98254L162.215 13.1115C162.051 13.088 161.852 13.0685 161.617 13.0529C161.391 13.0294 161.184 13.0177 160.996 13.0177C160.52 13.0177 160.105 13.0802 159.754 13.2052C159.41 13.3224 159.121 13.4982 158.887 13.7325C158.66 13.9669 158.488 14.2521 158.371 14.588C158.262 14.924 158.199 15.3068 158.184 15.7365L157.504 15.5255C157.504 14.7052 157.586 13.9513 157.75 13.2638C157.914 12.5685 158.152 11.963 158.465 11.4474C158.785 10.9318 159.176 10.5333 159.637 10.2521C160.098 9.97083 160.625 9.8302 161.219 9.8302C161.406 9.8302 161.598 9.84583 161.793 9.87708C161.988 9.90051 162.148 9.93567 162.273 9.98254ZM169.469 22.9786C168.484 22.9786 167.602 22.8224 166.82 22.5099C166.039 22.1896 165.375 21.7482 164.828 21.1857C164.289 20.6232 163.875 19.9708 163.586 19.2286C163.297 18.4786 163.152 17.6818 163.152 16.838V16.3693C163.152 15.4083 163.289 14.5294 163.562 13.7325C163.836 12.9357 164.227 12.2443 164.734 11.6583C165.25 11.0724 165.875 10.6232 166.609 10.3107C167.344 9.99036 168.172 9.8302 169.094 9.8302C169.992 9.8302 170.789 9.97864 171.484 10.2755C172.18 10.5724 172.762 10.9943 173.23 11.5411C173.707 12.088 174.066 12.7443 174.309 13.5099C174.551 14.2677 174.672 15.1115 174.672 16.0411V17.4474H164.594V15.1974H171.355V14.9396C171.355 14.4708 171.27 14.0529 171.098 13.6857C170.934 13.3107 170.684 13.0138 170.348 12.795C170.012 12.5763 169.582 12.4669 169.059 12.4669C168.613 12.4669 168.23 12.5646 167.91 12.7599C167.59 12.9552 167.328 13.2286 167.125 13.5802C166.93 13.9318 166.781 14.3458 166.68 14.8224C166.586 15.2911 166.539 15.8068 166.539 16.3693V16.838C166.539 17.3458 166.609 17.8146 166.75 18.2443C166.898 18.674 167.105 19.045 167.371 19.3575C167.645 19.67 167.973 19.9122 168.355 20.0841C168.746 20.256 169.188 20.3419 169.68 20.3419C170.289 20.3419 170.855 20.2247 171.379 19.9904C171.91 19.7482 172.367 19.3849 172.75 18.9005L174.391 20.6818C174.125 21.0646 173.762 21.4318 173.301 21.7833C172.848 22.1349 172.301 22.424 171.66 22.6505C171.02 22.8693 170.289 22.9786 169.469 22.9786ZM179.969 12.8302V22.7443H176.594V10.0646H179.77L179.969 12.8302ZM183.789 9.98254L183.73 13.1115C183.566 13.088 183.367 13.0685 183.133 13.0529C182.906 13.0294 182.699 13.0177 182.512 13.0177C182.035 13.0177 181.621 13.0802 181.27 13.2052C180.926 13.3224 180.637 13.4982 180.402 13.7325C180.176 13.9669 180.004 14.2521 179.887 14.588C179.777 14.924 179.715 15.3068 179.699 15.7365L179.02 15.5255C179.02 14.7052 179.102 13.9513 179.266 13.2638C179.43 12.5685 179.668 11.963 179.98 11.4474C180.301 10.9318 180.691 10.5333 181.152 10.2521C181.613 9.97083 182.141 9.8302 182.734 9.8302C182.922 9.8302 183.113 9.84583 183.309 9.87708C183.504 9.90051 183.664 9.93567 183.789 9.98254Z" fill="#4D585E"/>
<path d="M15 0.744263L27.9904 8.24426V23.2443L15 30.7443L2.00962 23.2443V8.24426L15 0.744263Z" fill="#4D585E"/>
</svg>
